<?xml version="1.0" standalone="no"?>
<!DOCTYPE svg PUBLIC "-//W3C//DTD SVG 20010904//EN"
 "http://www.w3.org/TR/2001/REC-SVG-20010904/DTD/svg10.dtd">
<svg version="1.0" xmlns="http://www.w3.org/2000/svg"
 width="16.000000pt" height="16.000000pt" viewBox="0 0 16.000000 16.000000"
 preserveAspectRatio="xMidYMid meet">
<metadata>
Created by potrace 1.11, written by Peter Selinger 2001-2013
</metadata>
<g transform="translate(0.000000,16.000000) scale(0.004092,-0.004092)"
fill="#000000" stroke="none">
<path d="M1655 3378 c-3 -13 -21 -93 -41 -178 -19 -85 -109 -479 -200 -875
-91 -396 -201 -879 -244 -1074 -44 -194 -81 -356 -83 -358 -2 -2 -28 70 -57
159 -29 90 -120 357 -202 593 -82 237 -155 445 -161 463 -6 17 -16 32 -24 32
-7 0 -83 -27 -168 -61 -102 -39 -155 -65 -155 -75 0 -8 6 -30 14 -48 l14 -33
102 35 c69 24 104 32 108 24 4 -6 108 -301 231 -656 l225 -646 73 0 c40 0 73
2 73 4 0 3 599 2627 615 2694 5 21 3 22 -55 22 -54 0 -60 -2 -65 -22z"/>
<path d="M2015 2529 c-33 -5 -88 -18 -122 -30 -68 -22 -70 -27 -53 -90 l10
-36 66 14 c38 8 109 12 163 11 l96 -3 -3 -80 c-9 -286 -108 -906 -186 -1158
l-14 -48 76 3 76 3 24 75 c60 190 138 649 170 1010 l18 195 277 3 277 2 0
-487 c1 -496 9 -712 30 -770 l12 -33 75 0 76 0 -8 33 c-20 96 -24 210 -25 710
l0 547 103 0 c56 0 108 4 115 9 8 5 16 35 19 70 l6 61 -609 -1 c-335 -1 -636
-5 -669 -10z"/>
</g>
</svg>
